<?xml version="1.0" encoding="UTF-8"?>
<svg xmlns="http://www.w3.org/2000/svg" viewBox="0 0 550 360.22">
  <defs>
    <style>
      .cls-1 {
        fill: #f1d595;
      }

      .cls-2 {
        fill: #999;
      }

      .cls-2, .cls-3, .cls-4, .cls-5, .cls-6, .cls-7 {
        stroke-miterlimit: 10;
      }

      .cls-2, .cls-3, .cls-4, .cls-5, .cls-7 {
        stroke: #ddd;
      }

      .cls-2, .cls-4 {
        stroke-width: 6px;
      }

      .cls-3, .cls-4, .cls-5 {
        fill: #d6d6d6;
      }

      .cls-8 {
        fill: #d02b48;
      }

      .cls-9 {
        fill: #385696;
      }

      .cls-5 {
        stroke-width: 5px;
      }

      .cls-6 {
        fill: #fff;
        stroke: #fff;
        stroke-width: .25px;
      }

      .cls-7, .cls-10 {
        fill: #ddd;
      }

      .cls-11 {
        fill: #d2003c;
      }

      .cls-12 {
        fill: #385b9f;
      }

      .cls-13 {
        fill: #bababa;
      }

      .cls-14 {
        fill: #c92946;
      }

      .cls-15 {
        fill: #bfbbb7;
      }
    </style>
  </defs>
  <g id="Mobile">
    <ellipse class="cls-2" cx="446.22" cy="316.02" rx="12.1" ry="49.31" transform="translate(112.62 749.25) rotate(-87.71)"/>
    <path class="cls-10" d="M398.12,187.67l52.85,19.92-27.14,115.89c-3.05-.54-1.98-.4-5.81-1.32-2.59-.62-10.39-3.04-12.59-4.19-1.97-1.02-3.79-1.62-5.39-2.79-1.11-.81-2.9-2.59-4.26-3.3-.02-39.33,2.37-84.87,2.35-124.21Z"/>
    <path class="cls-9" d="M445.52,206.13c17.44-4.12,34.88-8.23,52.32-12.35l-1.06,110.08c.09,4.59-.29,7.43-.2,12.02-.54,1.58-1.69,2.33-3.72,3.6-3.37,2.1-8.23,3.43-10.3,3.74-15.53,2.27-23.33,2.72-33.83,2.5-11.74-.24-21.9-1.44-30.31-3.36,9.09-38.53,18.01-77.7,27.1-116.23Z"/>
    <polygon class="cls-10" points="496.05 69.5 472.68 75.59 445.32 208.24 497.79 195.92 496.05 69.5"/>
    <path class="cls-12" d="M398.12,187.67c4.64,3.63,12.11,8.59,22.37,12.12,13.31,4.58,24.89,4.54,31.41,4.05l26.99-119.95.13-6.25.18-6.47c-8.76.66-16.2.88-21.86.94-8.28.09-13.29.12-20.22-.74-.39-.05-4.46-.75-12.61-2.16-8.82-1.53-11.94-2.09-16.07-3.58-3.54-1.28-6.28-2.69-8-3.64l-.5,26.75c-.29,15.37-.57,30.74-.86,46.11-.33,17.6-.65,35.21-.98,52.81Z"/>
    <ellipse class="cls-4" cx="449.49" cy="62.62" rx="12.1" ry="46.23" transform="translate(368.95 509.25) rotate(-87.71)"/>
    <ellipse cx="446.97" cy="67.44" rx="15.65" ry="6.59" transform="translate(-3.97 98.85) rotate(-12.56)"/>
    <path class="cls-3" d="M442.51,62.61l4.72,4.34,11.32.29,6.53-3.33,2.87-16.58,5.4-17.86-2.48-3.74-20.03-1.5-3.94,3.4-1.99,16.3-2.4,18.69ZM447.08,58.76l.98-7.05,1.98-4.43,11.56,1.42-2.85,11.03-11.67-.96Z"/>
    <path class="cls-10" d="M403.58,67.53c-.02-1.4-1.91-4.82-1.93-6.22,4.96,2.28,10.73,5.63,17.63,7.41,11.76,3.03,22.18,3.54,30.05,3.27,6.12.23,13.67,0,22.15-1.43,10.52-1.77,19.18-4.83,25.65-7.67-.23,1.74-.45,3.47-.68,5.21-5.3,2.14-12.88,4.72-22.26,6.32-9.08,1.55-15.75,1.49-24.33,1.4-12.28-.12-22.33-.29-34.7-3.98-5.82-1.73-8.4-2.8-11.58-4.32Z"/>
    <circle class="cls-1" cx="447.49" cy="196" r="21.9"/>
    <path class="cls-11" d="M403.13,188.41l.62,1.23,2.1.75,1.2.05-2.08,1.92-.05,1.2-.08,2-.07,1.73,1.04.71,1.67,1.67,1.86.07,1.33.05.56,2.69-.07,1.86-1.2-.05-2.47,1.77-1.77.86-.85,1.3.05,2,3.04-2.55-1.37,2.61,2.33.09.46-1.58,1.58.6,1.79-1.4s.8-.1,1.2.05,1.46.19,1.46.19l1.62-.47,1.26-1.42.06-1.46,2.84-.95,5.59.22-.59-1.89,2.06,1.95,1.31.59,1.01,1.51-3.85-.42-1.32-.32-1.76.73,1.67,1.67,1.58.46,1.13,1.65,2.42-.57,2.74-1.76,1.23-.75.07-1.86-.61-1.49-1.44-.72-.62-1.23,1.18-2.89.82,2.83,2.68-.29-.05,1.2-.1,2.4-.09,2.26,2.15-.31,1.76-.73,1.2.05,1.83-2.33,1.27,1.52,1.59.2,1.86.21-2.95-3.05,3.01,1.45-4.58-5.65-1.04-4.04-2.05-2.08-3.22-2.93-3.4-1.74-2.59-1.84-1.86-.07-2.61,1.9-2.19,1.51-1.23.62-1.93,1.66-1.72-.47-1.68,2.07-1,1.56-1.45-.46-1.61.2-2.07,1.65-1.67,1.67-1.2-.05-1.6-.06-.61-1.36-.2-1.61.98-1.16,1.51-1.14.25-2.79-.74-1.5-1.73-.07-1.59-.33"/>
    <path class="cls-11" d="M496.07,185.86l-.54,1.26-2.06.87-1.19.12,2.19,1.79.12,1.19.2,1.99.17,1.72-.99.77-1.57,1.76-1.86.19-1.33.13-.4,2.72.19,1.86,1.19-.12,2.57,1.62,1.82.76.93,1.25.07,2-3.18-2.36,1.52,2.53-2.32.23-.56-1.55-1.54.69-1.87-1.29s-.81-.05-1.19.12-1.45.28-1.45.28l-1.64-.37-1.34-1.34-.15-1.46-2.89-.78-5.57.56.48-1.92-1.94,2.07-1.27.66-.92,1.56,3.82-.65,1.3-.4,1.8.62-1.57,1.76-1.55.56-1.03,1.71-2.45-.42-2.84-1.59-1.27-.68-.19-1.86.52-1.53,1.39-.81.54-1.26-1.35-2.81-.65,2.88-2.69-.13.12,1.19.24,2.39.23,2.25-2.16-.19-1.8-.62-1.19.12-1.96-2.22-1.18,1.59-1.58.29-1.84.32,2.76-3.22-2.92,1.63,4.23-5.91.8-4.1,1.92-2.2,3.04-3.12,3.29-1.94,2.48-1.99,1.86-.19,2.72,1.74,2.28,1.38,1.26.54,2.03,1.54,1.68-.57,1.8,1.96,1.09,1.5,1.42-.54,1.62.11,2.16,1.53,1.76,1.57,1.19-.12,1.59-.16.53-1.39.11-1.62-1.05-1.1-1.58-1.05-.41-2.77.65-1.54,1.72-.17,1.56-.42"/>
    <polygon class="cls-6" points="463.22 37.74 461.74 38.66 461.04 38.22 461.03 36.86 460.48 36.44 459.78 36.57 459.44 37.24 459.67 38.28 459.48 39.29 459.23 39.76 458.9 40.17 457.74 39.95 456.84 39.42 456.97 38.71 457.71 38.69 458.29 38.65 458.3 38.05 457.8 37.35 456.58 37.18 456.18 37.65 455.51 38.7 453.67 40.45 452.37 40.67 451.72 40.55 451.97 39.19 453.47 38.74 453.83 37.65 451.33 37.6 450.95 36.28 451.17 35.12 451.69 34.54 452.26 34.33 452.64 32.83 453.44 33.61 453.68 34.54 453.03 35.21 452.63 35.7 453.66 35.74 454.67 34.83 455.25 34.26 456.12 33.49 457.4 32.52 459.06 31.74 460.5 32.46 461.95 33.32 464.42 37.83 463.22 37.74"/>
    <ellipse class="cls-13" cx="101.33" cy="35.07" rx="8.02" ry="9.01" transform="translate(48.22 128.22) rotate(-79.4)"/>
    <ellipse class="cls-2" cx="107.91" cy="316" rx="12.1" ry="49.31" transform="translate(-212.16 411.19) rotate(-87.71)"/>
    <path class="cls-10" d="M59.8,187.65l52.85,19.92-27.14,115.89c-3.05-.54-1.98-.4-5.81-1.32-2.59-.62-10.39-3.04-12.59-4.19-1.97-1.02-3.79-1.62-5.39-2.79-1.11-.81-2.9-2.59-4.26-3.3-.02-39.33,2.37-84.87,2.35-124.21Z"/>
    <path class="cls-9" d="M107.21,206.11c17.44-4.12,34.88-8.23,52.32-12.35l-1.06,110.08c.09,4.59-.29,7.43-.2,12.02-.54,1.58-1.69,2.33-3.72,3.6-3.37,2.1-8.23,3.43-10.3,3.74-15.53,2.27-23.33,2.72-33.83,2.5-11.74-.24-21.9-1.44-30.31-3.36,9.09-38.53,18.01-77.7,27.1-116.23Z"/>
    <polygon class="cls-10" points="157.73 69.48 134.36 75.57 107 208.22 159.48 195.91 157.73 69.48"/>
    <path class="cls-12" d="M59.8,187.65c4.64,3.63,12.11,8.59,22.37,12.12,13.31,4.58,24.89,4.54,31.41,4.05l26.99-119.95.13-6.25.18-6.47c-8.76.66-16.2.88-21.86.94-8.28.09-13.29.12-20.22-.74-.39-.05-4.46-.75-12.61-2.16-8.82-1.53-11.94-2.09-16.07-3.58-3.54-1.28-6.28-2.69-8-3.64l-.5,26.75c-.29,15.37-.57,30.74-.86,46.11-.33,17.6-.65,35.21-.98,52.81Z"/>
    <ellipse class="cls-4" cx="111.18" cy="62.61" rx="12.1" ry="46.23" transform="translate(44.17 171.19) rotate(-87.71)"/>
    <ellipse cx="110.25" cy="67.03" rx="6.59" ry="15.65" transform="translate(20.84 160.05) rotate(-77.44)"/>
    <path class="cls-3" d="M115.31,42.51l-1.99-16.3-3.94-3.4-20.03,1.5-2.48,3.74,5.4,17.86,2.87,16.58,6.53,3.33,11.32-.29,4.72-4.34-2.4-18.69ZM101.46,58.31l-2.85-11.03,11.56-1.42,1.98,4.43.98,7.05-11.67.96Z"/>
    <path class="cls-10" d="M65.27,67.51c-.02-1.4-1.91-4.82-1.93-6.22,4.96,2.28,10.73,5.63,17.63,7.41,11.76,3.03,22.18,3.54,30.05,3.27,6.12.23,13.67,0,22.15-1.43,10.52-1.77,19.18-4.83,25.65-7.67-.23,1.74-.45,3.47-.68,5.21-5.3,2.14-12.88,4.72-22.26,6.32-9.08,1.55-15.75,1.49-24.33,1.4-12.28-.12-22.33-.29-34.7-3.98-5.82-1.73-8.4-2.8-11.58-4.32Z"/>
    <circle class="cls-1" cx="109.17" cy="195.99" r="21.9"/>
    <path class="cls-11" d="M64.81,188.39l.62,1.23,2.1.75,1.2.05-2.08,1.92-.05,1.2-.08,2-.07,1.73,1.04.71,1.67,1.67,1.86.07,1.33.05.56,2.69-.07,1.86-1.2-.05-2.47,1.77-1.77.86-.85,1.3.05,2,3.04-2.55-1.37,2.61,2.33.09.46-1.58,1.58.6,1.79-1.4s.8-.1,1.2.05,1.46.19,1.46.19l1.62-.47,1.26-1.42.06-1.46,2.84-.95,5.59.22-.59-1.89,2.06,1.95,1.31.59,1.01,1.51-3.85-.42-1.32-.32-1.76.73,1.67,1.67,1.58.46,1.13,1.65,2.42-.57,2.74-1.76,1.23-.75.07-1.86-.61-1.49-1.44-.72-.62-1.23,1.18-2.89.82,2.83,2.68-.29-.05,1.2-.1,2.4-.09,2.26,2.15-.31,1.76-.73,1.2.05,1.83-2.33,1.27,1.52,1.59.2,1.86.21-2.95-3.05,3.01,1.45-4.58-5.65-1.04-4.04-2.05-2.08-3.22-2.93-3.4-1.74-2.59-1.84-1.86-.07-2.61,1.9-2.19,1.51-1.23.62-1.93,1.66-1.72-.47-1.68,2.07-1,1.56-1.45-.46-1.61.2-2.07,1.65-1.67,1.67-1.2-.05-1.6-.06-.61-1.36-.2-1.61.98-1.16,1.51-1.14.25-2.79-.74-1.5-1.73-.07-1.59-.33"/>
    <path class="cls-11" d="M157.75,185.84l-.54,1.26-2.06.87-1.19.12,2.19,1.79.12,1.19.2,1.99.17,1.72-.99.77-1.57,1.76-1.86.19-1.33.13-.4,2.72.19,1.86,1.19-.12,2.57,1.62,1.82.76.93,1.25.07,2-3.18-2.36,1.52,2.53-2.32.23-.56-1.55-1.54.69-1.87-1.29s-.81-.05-1.19.12-1.45.28-1.45.28l-1.64-.37-1.34-1.34-.15-1.46-2.89-.78-5.57.56.48-1.92-1.94,2.07-1.27.66-.92,1.56,3.82-.65,1.3-.4,1.8.62-1.57,1.76-1.55.56-1.03,1.71-2.45-.42-2.84-1.59-1.27-.68-.19-1.86.52-1.53,1.39-.81.54-1.26-1.35-2.81-.65,2.88-2.69-.13.12,1.19.24,2.39.23,2.25-2.16-.19-1.8-.62-1.19.12-1.96-2.22-1.18,1.59-1.58.29-1.84.32,2.76-3.22-2.92,1.63,4.23-5.91.8-4.1,1.92-2.2,3.04-3.12,3.29-1.94,2.48-1.99,1.86-.19,2.72,1.74,2.28,1.38,1.26.54,2.03,1.54,1.68-.57,1.8,1.96,1.09,1.5,1.42-.54,1.62.11,2.16,1.53,1.76,1.57,1.19-.12,1.59-.16.53-1.39.11-1.62-1.05-1.1-1.58-1.05-.41-2.77.65-1.54,1.72-.17,1.56-.42"/>
    <polygon class="cls-6" points="107.82 36.39 106.34 37.31 105.64 36.87 105.63 35.51 105.08 35.09 104.38 35.22 104.05 35.89 104.27 36.93 104.08 37.94 103.84 38.41 103.5 38.82 102.34 38.6 101.44 38.07 101.58 37.36 102.31 37.34 102.89 37.3 102.9 36.7 102.41 36 101.18 35.83 100.78 36.3 100.11 37.35 98.27 39.1 96.98 39.32 96.32 39.2 96.57 37.84 98.07 37.39 98.43 36.3 95.93 36.25 95.55 34.93 95.77 33.77 96.3 33.19 96.86 32.98 97.24 31.48 98.04 32.26 98.28 33.19 97.63 33.86 97.23 34.35 98.26 34.39 99.27 33.48 99.85 32.91 100.73 32.14 102 31.17 103.67 30.39 105.1 31.11 106.56 31.97 109.02 36.48 107.82 36.39"/>
  </g>
  <g id="Layer_6" data-name="Layer 6">
    <ellipse class="cls-10" cx="280.24" cy="316.41" rx="52.13" ry="13.62"/>
    <path class="cls-4" d="M230.33,87.38l-.69,8.14,1.99,10.29,1.45,1.04,2.52,2.15.61,1.36-1.99,1.12-1.3,18.27-1.3,10.05-1.99,11.17-1.3,11.49-2.37,24.89-2.72,12.58-1.21,9.34,1.33,7.68,2.9,7.98,3.52,8.86,2.6,5.74-.38,14.2-1.68,46.83-.53,12.87c8.88,4.63,26.14,12.1,48.94,12.37,24.18.28,42.44-7.69,51.42-12.37.33-1.26.67-2.53,1-3.79v-10.92l-.45-86.66-.5-4.79-.34-62.95-.73-7.07-4.31-34.34,2.91-7.65.11-6.72.67-8.41-3.12-10.75-95.08,17.99Z"/>
    <polygon class="cls-12" points="237.42 84.53 236.08 93.39 237.83 108.43 243.63 116.68 238.71 120.35 233.97 128.23 231.69 137.22 228.18 151.7 225.54 169.86 223.26 198.09 240.82 201.76 249.6 195.71 289.12 195.16 291.05 169.12 307.03 158.31 299.31 145.47 322.14 85.69 322.84 79.46 320.21 72.12 237.42 84.53"/>
    <path class="cls-15" d="M248.23,191.86l41.39,9.65-2.07,18.92c-2.48,4.91-13.08,24.65-31.11,27.03-2.13.28-4.53.34-7.18,0-1.88-5.15-4.62-11.31-8.62-17.76-5.9-9.5-12.37-16.12-17.38-20.46,8.32-5.79,16.65-11.58,24.97-17.37Z"/>
    <polygon class="cls-15" points="251.46 242.79 281.65 290.89 285.29 277.91 260.67 242.79 251.46 242.79"/>
    <polygon class="cls-15" points="299.31 145.47 322.84 143.39 307.03 158.31 299.31 145.47"/>
    <polygon class="cls-15" points="226.85 82.6 229.95 107.02 226.5 163.26 243.63 116.68 238.39 84.62 228.48 83.7 226.85 82.6"/>
    <path class="cls-12" d="M289.75,205.62l-12.48,120.17c6.63.15,14.85-.28,24.09-2.16,12.04-2.45,21.76-6.56,28.8-10.22-.3-41.28-.61-82.56-.91-123.84l-40.13,7.35.63,8.69Z"/>
    <ellipse class="cls-1" cx="280.98" cy="202.07" rx="18.08" ry="25.06"/>
    <path class="cls-8" d="M244.11,197.47l.58,1.23,1.77.62.99-.05-1.61,2.17.03,1.26.04,2.1.04,1.82.89.66,1.46,1.61,1.54-.07,1.1-.05.61,2.77.04,1.96-.99.05-1.94,2.05-1.41,1.05-.63,1.43.15,2.09,2.36-2.91-.99,2.85,1.92-.09.3-1.69,1.33.5,1.4-1.61s.66-.17.99-.05,1.21.08,1.21.08l1.31-.62.96-1.58-.03-1.54,2.29-1.23,4.62-.22-.59-1.93,1.8,1.87,1.11.51.91,1.5-3.19-.13-1.1-.23-1.41.91,1.46,1.61,1.33.36,1.02,1.63,1.96-.79,2.16-2.06.97-.89-.04-1.96-.58-1.51-1.22-.64-.58-1.23.82-3.12.83,2.9,2.19-.52.03,1.26.05,2.52.05,2.38,1.75-.5,1.41-.91.99-.05,1.38-2.58,1.13,1.49,1.32.08,1.54.07-2.59-2.96,2.56,1.28-4.07-5.55-1.07-4.15-1.8-2.01-2.81-2.81-2.89-1.54-2.24-1.71-1.54.07-2.05,2.2-1.72,1.76-.98.75-1.5,1.89-1.44-.35-1.27,2.3-.74,1.71-1.22-.36-1.31.34-1.61,1.9-1.28,1.88-.99.05-1.32.06-.58-1.37-.25-1.67.74-1.29,1.18-1.32.05-2.94-.69-1.51-1.43.07-1.32-.22"/>
    <path class="cls-5" d="M328.04,65.42c0-8.42-8.76-11.29-37.41-11.29-7.16,0-31.67,7.49-37.69,10.07-18.07,7.72-27.06,9.65-26.4,15.93.5,4.72.17,4.37,8.29,4.51,11.29.19,25.83-2.23,40.42-5.44,28.03-6.16,52.79-5.35,52.79-13.78Z"/>
    <ellipse cx="270.52" cy="72.15" rx="15.65" ry="4.49" transform="translate(-8.24 98.21) rotate(-20.27)"/>
    <path class="cls-14" d="M319.96,177.72l-.35,1.84-1.63,1.4-.98.26,1.94,2.4.19,1.69.32,2.82.28,2.45-.76,1.17-1.15,2.63-1.52.4-1.08.28-.12,3.91.3,2.63.98-.26,2.25,2.12,1.56.95.86,1.71.21,2.85-2.81-3.14,1.45,3.49-1.9.5-.58-2.17-1.22,1.09-1.64-1.7s-.67-.02-.98.26-1.17.5-1.17.5l-1.39-.41-1.21-1.81-.23-2.07-2.45-.91-4.55,1.19.24-2.78-1.44,3.09-1,1.04-.63,2.3,3.1-1.2,1.04-.66,1.54.76-1.15,2.63-1.24.91-.72,2.51-2.06-.43-2.47-2.07-1.1-.87-.3-2.63.31-2.21,1.09-1.25.35-1.84-1.33-3.91-.31,4.15h-2.23s.19,1.7.19,1.7l.38,3.39.36,3.2-1.8-.11-1.54-.76-.98.26-1.79-3.02-.85,2.35-1.28.53-1.5.59,2.03-4.79-2.28,2.54,3.03-8.74.34-5.9,1.42-3.28,2.26-4.66,2.56-3,1.89-3.02,1.52-.4,2.38,2.28,1.99,1.8,1.08.68,1.79,2.05,1.35-.93,1.64,2.67,1.01,2.06,1.13-.88,1.34.03,1.9,2.02,1.58,2.1.98-.26,1.3-.34.33-2.02-.04-2.31-.95-1.49-1.38-1.38-.55-3.92.42-2.24,1.41-.37,1.26-.72"/>
    <path class="cls-7" d="M302.87,53.1l-20.24-1.58-23.45,22.31v2.37l20.99-3.36,23.83-17.97-1.13-1.78ZM273.91,73.07l-6.46-3.37,8.15-5.97h10.24l-11.93,9.34ZM287.1,62.88c-4.92,0-8.91-2-8.91-4.47s3.99-4.47,8.91-4.47,8.91,2,8.91,4.47-3.99,4.47-8.91,4.47Z"/>
  </g>
</svg>