<?xml version="1.0" encoding="UTF-8"?>
<svg id="Layer_2" data-name="Layer 2" xmlns="http://www.w3.org/2000/svg" viewBox="0 0 921.88 2049.14">
  <defs>
    <style>
      .cls-1 {
        fill: #f1d595;
      }

      .cls-2 {
        fill: #d02b48;
      }

      .cls-3 {
        stroke-width: 21px;
      }

      .cls-3, .cls-4, .cls-5, .cls-6 {
        stroke-miterlimit: 10;
      }

      .cls-3, .cls-5, .cls-6 {
        stroke: #999;
      }

      .cls-3, .cls-7 {
        fill: #bfbbb7;
      }

      .cls-4 {
        stroke: #afafaf;
        stroke-width: 3px;
      }

      .cls-4, .cls-8 {
        fill: #002e77;
      }

      .cls-5 {
        stroke-width: 10px;
      }

      .cls-5, .cls-6, .cls-9 {
        fill: #999;
      }

      .cls-10 {
        fill: #c92946;
      }
    </style>
  </defs>
  <ellipse class="cls-6" cx="487.36" cy="1905.32" rx="383.56" ry="95.95"/>
  <path class="cls-9" d="M120.2,291.31l-5.06,57.35,14.62,72.53,10.68,7.31,18.55,15.18,4.5,9.56-14.62,7.87-9.56,128.75-9.56,70.84-14.62,78.71-9.56,80.96-17.43,175.42-20.01,88.67-8.91,65.81,9.81,54.11,21.37,56.22,25.86,62.41,19.12,40.48-2.81,100.08-12.37,330.04-3.94,90.67c65.34,32.65,192.31,85.3,360.1,87.15,177.87,1.96,312.26-54.16,378.31-87.15,2.45-8.91,4.89-17.81,7.34-26.72v-76.95l-3.29-610.68-3.7-33.74-2.47-443.61-5.35-49.79-31.69-241.97,21.4-53.91.82-47.32,4.94-59.26-22.96-75.77L120.2,291.31Z"/>
  <polygon class="cls-8" points="172.33 271.23 162.46 333.71 175.39 439.67 218.03 497.81 181.85 523.66 146.96 579.22 130.16 642.54 104.32 744.62 84.93 872.54 68.14 1071.54 197.35 1097.38 261.96 1054.74 552.7 1050.87 566.92 867.38 684.5 791.14 627.65 700.69 795.63 279.44 800.8 235.5 781.42 183.81 172.33 271.23"/>
  <path class="cls-7" d="M251.87,1027.61l304.55,68.02-15.23,133.32c-18.27,34.63-96.25,173.74-228.92,190.45-15.7,1.98-33.36,2.39-52.8,0-13.87-36.29-33.99-79.71-63.45-125.15-43.37-66.92-91.02-113.59-127.9-144.2,61.25-40.81,122.49-81.62,183.74-122.43Z"/>
  <polygon class="cls-7" points="275.65 1386.51 497.75 1725.47 524.51 1634.02 343.42 1386.51 275.65 1386.51"/>
  <polygon class="cls-7" points="627.65 700.69 800.8 686.04 684.5 791.14 627.65 700.69"/>
  <polygon class="cls-7" points="94.57 257.61 117.36 429.71 91.98 826.04 218.03 497.81 179.44 271.86 106.57 265.38 94.57 257.61"/>
  <path class="cls-4" d="M557.37,1124.61l-91.85,846.89c48.79,1.04,109.27-1.94,177.23-15.2,88.56-17.28,160.11-46.22,211.92-72-2.24-290.92-4.48-581.83-6.72-872.75l-295.25,51.79,4.67,61.27Z"/>
  <path class="cls-3" d="M839.02,136.58c0-59.37-64.46-79.54-275.21-79.54-52.69,0-233.02,52.81-277.33,70.94-132.93,54.39-199.06,68-194.22,112.26,3.65,33.3,1.26,30.82,60.96,31.78,83.04,1.33,190.04-15.75,297.38-38.34,206.23-43.42,388.41-37.73,388.41-97.09Z"/>
  <ellipse class="cls-1" cx="537.6" cy="1045.17" rx="105.15" ry="95.57"/>
  <path class="cls-2" d="M323.13,1027.61l3.35,4.7,10.31,2.35,5.76-.18-9.35,8.3.15,4.8.25,8,.21,6.93,5.2,2.51,8.51,6.14,8.95-.28,6.4-.2,3.53,10.57.23,7.47-5.76.18-11.28,7.82-8.2,3.99-3.67,5.45.89,7.98,13.74-11.1-5.75,10.85,11.19-.35,1.72-6.46,7.74,1.9,8.13-6.12s3.82-.65,5.76-.18,7.05.32,7.05.32l7.61-2.37,5.57-6.04-.18-5.87,13.3-4.68,26.86-.83-3.43-7.37,10.46,7.15,6.46,1.94,5.3,5.71-18.58-.49-6.43-.87-8.21,3.46,8.51,6.14,7.72,1.36,5.95,6.22,11.43-3.02,12.56-7.86,5.66-3.38-.23-7.47-3.38-5.77-7.12-2.45-3.35-4.7,4.75-11.89,4.82,11.06,12.74-2,.15,4.8.3,9.6.28,9.07,10.18-1.92,8.21-3.46,5.76-.18,8.02-9.86,6.58,5.67,7.69.3,8.97.26-15.07-11.28,14.87,4.88-23.7-21.15-6.25-15.82-10.48-7.68-16.33-10.7-16.83-5.89-13-6.54-8.95.28-11.9,8.37-10.03,6.72-5.67,2.84-8.74,7.21-8.36-1.34-7.41,8.77-4.28,6.54-7.08-1.38-7.64,1.3-9.38,7.23-7.46,7.17-5.76.18-7.67.24-3.36-5.23-1.48-6.36,4.33-4.94,6.89-5.02.29-11.22-4.02-5.75-8.31.26-7.71-.83"/>
  <path class="cls-10" d="M764.35,952.28l-2.04,7-9.47,5.32-5.68.98,11.31,9.14,1.11,6.46,1.85,10.77,1.61,9.33-4.43,4.46-6.72,10.02-8.83,1.52-6.31,1.09-.68,14.9,1.73,10.05,5.68-.98,13.08,8.09,9.06,3.61,5.02,6.53,1.22,10.87-16.34-11.97,8.46,13.32-11.03,1.9-3.37-8.29-7.07,4.17-9.56-6.48s-3.91-.07-5.68.98-6.81,1.91-6.81,1.91l-8.06-1.57-7.03-6.92-1.36-7.89-14.23-3.46-26.48,4.56,1.42-10.59-8.36,11.78-5.81,3.96-3.69,8.76,18.04-4.58,6.06-2.52,8.94,2.9-6.72,10.02-7.2,3.46-4.19,9.59-11.97-1.64-14.34-7.88-6.42-3.33-1.73-10.05,1.79-8.44,6.32-4.78,2.04-7-7.76-14.92-1.82,15.83-12.98.02,1.11,6.46,2.22,12.92,2.1,12.2-10.46-.42-8.94-2.9-5.68.98-10.42-11.51-4.95,8.98-7.44,2.02-8.7,2.24,11.79-18.28-13.27,9.67,17.64-33.33,1.97-22.51,8.24-12.5,13.17-17.78,14.91-11.43,11.01-11.5,8.83-1.52,13.83,8.7,11.57,6.88,6.29,2.61,10.43,7.81,7.83-3.56,9.54,10.18,5.9,7.85,6.57-3.35,7.81.13,11.06,7.7,9.17,8.03,5.68-.98,7.57-1.3,1.92-7.72-.22-8.83-5.53-5.7-8.05-5.27-3.22-14.96,2.42-8.55,8.2-1.41,7.32-2.74"/>
  <path class="cls-5" d="M653.84,49.77l-148.88-11.13-172.54,157.23v16.7l154.45-23.65,175.32-126.62-8.35-12.52ZM440.83,190.48l-47.55-23.77,59.95-42.06h75.37l-87.78,65.83ZM537.83,118.64c-36.22,0-65.57-14.09-65.57-31.47s29.36-31.47,65.57-31.47,65.57,14.09,65.57,31.47-29.36,31.47-65.57,31.47Z"/>
</svg>