<?xml version="1.0" encoding="UTF-8"?>
<svg id="Layer_6" data-name="Layer 6" xmlns="http://www.w3.org/2000/svg" viewBox="0 0 32 32">
  <defs>
    <style>
      .cls-1 {
        fill: #f1d595;
      }

      .cls-2 {
        fill: #d2003c;
      }
    </style>
  </defs>
  <ellipse class="cls-1" cx="16.02" cy="16.06" rx="15.65" ry="15.71"/>
  <g>
    <polygon class="cls-2" points="9.94 23.49 9.93 22.77 9.64 22.77 9.24 23.56 9.74 23.84 9.94 23.49"/>
    <path class="cls-2" d="M27.4,13.19l-.75-.06-1-.57-.37-.06-.2-.13-1.48-1.61-.62-.84-.31-.22-.82-.42-1.06-.44-.9-.28-1-.2-.9-.2h-1.04l-.51.2-.51.48-.33.64-.24.37-.57.66-.57.62-.16.4-.13.53c-.03.08-.08.2-.19.33-.12.14-.26.22-.34.26-.14.07-.34.21-.53.44-.12.15-.19.29-.24.4l-.22.64-.26.59-.44.5-.46.26-.31.31s-.11.07-.18.13c-.33.28-.41.63-.52.95-.09.26-.24.63-.5,1.05l-.15.28-.26.31-.22.24-.37.22-.46.09c-.08,0-.26.01-.46-.09-.13-.06-.21-.15-.26-.2-.08-.09-.25-.28-.33-.59-.06-.23-.04-.42-.02-.53.16-.42.32-.83.47-1.25.16-.59.15-.86.1-1,0-.01-.05-.12-.1-.27-.07-.2-.08-.23-.09-.26-.12-.25-.63-.26-.68-.26-.51,0-.76.3-1.4.3,0,0,0,0-.01,0-.44,0-.72,0-.9,0,0,.13.04.46.29.76.32.38.77.42.93.43.49.04.85-.16.99-.24l-.27,1.03c-.06.13-.38.93.02,1.74.2.41.5.65.68.77.13.1.37.28.73.35.59.12,1.06-.14,1.19-.22.32-.21.63-.43.95-.64.08.24.24.63.57,1.01.25.29.52.48.71.59-.32.13-.16.69-.47.82-.34.1-.48.26-.55.39-.18.36.18.63.05,1.16-.09.36-.27.31-.38.75-.06.25-.04.43-.18.66-.09.14-.2.24-.27.29.1.31.21.61.31.92.08.01.35.04.62-.13.25-.16.35-.38.38-.46.02-.09.04-.24.05-.42.01-.28-.02-.39.05-.5.05-.07.16-.14.44-.13l.31-.29.47-.97.37-.39c.42-.18.84-.37,1.26-.55.11-.23.22-.45.33-.68l.4-.47c-.04-.45-.07-.9-.11-1.35-.09,0-.18-.01-.27-.02l-.24,1.37-.79.76c-.24.1-.58.26-.93.53-.21.16-.42.31-.6.57-.13.17-.34.52-.4,1.06h-.16l.04-.37.24-.72.6-.62.9-.59.69-.73.26-.72-.04-.83c-.11-.42-.23-.84-.34-1.26.13.36.38.85.85,1.1.25.14.43.14.48.14.63,0,1.09-.61,1.12-.68.3-.04.71-.28,1.2-.58.27-.17.47-.35.62-.5l-.33-.62c.28.17.55.34.83.51.17.02.34.04.52.06.12-.02.51-.07.89.15.13.08.42.25.46.52.07.47-.64,1.08-1.2,1.01-.43-.06-.53-.49-.92-.53-.42-.04-.8.41-1.05.78l1.04.53.51-.26c.03.05.2.34.56.43.44.11.78-.18.81-.21l1.19-1.5c.1-.04.41-.16.6-.5.31-.53.02-1.1,0-1.14l-.22-.33-1.13-.75-.46.26,1.33,1.12-.15.86c0-.18-.04-.53-.27-.88-.43-.66-1.18-.76-1.3-.77l-.15-.31.66-.59-.07-.73h.4c-.02.08-.04.2-.03.35,0,.11.03.38.15.45.16.09.5-.13.84-.55l.42.51c-.05.39-.05.73.08.79.11.05.27-.12.33-.07.05.04.03.19-.18.62l.62.46.42-.04.86-.99c.18-.05.89-.26,1.22-.92.07-.15.11-.29.13-.42.16.08.57.25,1.1.19.54-.06.9-.33,1.04-.44l-.16-.06-1.24-.22c-.06-.09-.14-.19-.25-.3-.18-.16-.36-.24-.48-.29l.2-.02c.15.05.29.1.44.15.12.07.3.14.51.19.26.06.49.05.64.03.17.01.32-.06.4-.18.06-.1.06-.19.05-.24ZM18.58,11.65c-.1.09-.28-.21-.55-.5-.15-.16-.53-.32-.57-.45-.01-.04-.04-.13,0-.18.06-.07.24-.02.29,0,.46.15.97,1,.83,1.13ZM23.63,14.57s-.06.16-.17.25c-.1.09-.21.11-.26.12-.02-.03-.12-.2-.06-.42.06-.21.24-.3.27-.32.03.01.12.05.18.16.05.09.04.18.04.21ZM23.77,12.57s-.06.01-.13,0c-.13-.02-.62-.66-1-.54-.23.08-.11.53-.21.54-.06,0-.1-.05-.14-.09-.06-.07-.1-.27-.12-.48-.02-.26,0-.54.06-.57.05-.02.1-.02.18,0,.28.06.5.11.77.31.38.29.66.74.58.82Z"/>
  </g>
</svg>