<?xml version="1.0" encoding="UTF-8"?>
<svg xmlns="http://www.w3.org/2000/svg" viewBox="0 0 600 123.39">
  <defs>
    <style>
      .cls-1 {
        fill: #f1d595;
      }

      .cls-2 {
        fill: #d2003c;
      }
    </style>
  </defs>
  <g id="Mobile">
    <circle class="cls-1" cx="371.58" cy="60.46" r="58.32"/>
  </g>
  <g id="Layer_6" data-name="Layer 6">
    <g>
      <polygon class="cls-2" points="348.91 88.04 348.88 85.39 347.78 85.39 346.3 88.3 348.17 89.34 348.91 88.04"/>
      <path class="cls-2" d="M414,49.81l-2.79-.2-3.74-2.11-1.36-.2-.75-.48-5.52-5.99-2.32-3.13-1.16-.82-3.06-1.57-3.95-1.63-3.34-1.02-3.74-.75-3.34-.75h-3.88l-1.91.75-1.91,1.77-1.23,2.38-.89,1.36-2.11,2.45-2.11,2.32-.61,1.5-.48,1.97c-.11.3-.31.75-.7,1.21-.46.54-.97.83-1.27.97-.51.27-1.28.77-1.97,1.63-.44.55-.71,1.08-.89,1.5l-.82,2.38-.95,2.18-1.63,1.84-1.7.95-1.16,1.16c-.17.1-.41.25-.68.48-1.22,1.02-1.54,2.35-1.95,3.52-.34.97-.89,2.32-1.86,3.9l-.54,1.02-.95,1.16-.82.89-1.36.82-1.7.34c-.3.03-.98.04-1.7-.33-.47-.24-.77-.55-.95-.76-.32-.32-.94-1.05-1.23-2.18-.21-.84-.14-1.56-.07-1.97.59-1.54,1.18-3.09,1.77-4.63.59-2.2.56-3.21.37-3.71-.02-.05-.17-.44-.37-.99-.27-.75-.29-.86-.35-.98-.46-.94-2.36-.97-2.53-.97-1.91,0-2.82,1.13-5.22,1.13,0,0-.01,0-.04,0-1.63,0-2.67,0-3.36,0,.02.47.14,1.72,1.08,2.82,1.19,1.4,2.86,1.55,3.48,1.6,1.81.16,3.18-.58,3.68-.89l-1.02,3.81c-.21.5-1.41,3.46.07,6.47.75,1.53,1.87,2.42,2.52,2.86.47.39,1.39,1.04,2.72,1.29,2.22.43,3.96-.54,4.43-.82,1.18-.79,2.36-1.59,3.54-2.38.29.9.88,2.33,2.11,3.74.94,1.09,1.93,1.78,2.66,2.21-1.18.47-.59,2.57-1.77,3.03-1.28.37-1.81.95-2.04,1.43-.65,1.33.69,2.34.2,4.29-.33,1.33-1.02,1.14-1.43,2.79-.23.94-.15,1.6-.68,2.45-.33.53-.74.88-1.02,1.09.39,1.13.77,2.27,1.16,3.4.28.04,1.29.15,2.31-.48.94-.58,1.32-1.42,1.43-1.7.07-.33.17-.88.2-1.57.06-1.03-.08-1.46.2-1.84.19-.25.59-.53,1.63-.48l1.16-1.09,1.77-3.61,1.36-1.43c1.57-.68,3.13-1.36,4.7-2.04.41-.84.82-1.68,1.23-2.52l1.5-1.74c-.14-1.67-.27-3.33-.41-5-.34-.02-.68-.05-1.02-.07l-.89,5.07-2.93,2.83c-.9.37-2.15.98-3.47,1.97-.8.6-1.55,1.16-2.25,2.11-.47.64-1.26,1.94-1.5,3.95h-.61l.14-1.36.89-2.66,2.25-2.32,3.34-2.18,2.59-2.72.95-2.66-.14-3.06c-.43-1.56-.86-3.12-1.28-4.67.48,1.35,1.4,3.14,3.18,4.09.94.5,1.62.51,1.78.51,2.36-.01,4.04-2.26,4.17-2.51,1.12-.15,2.64-1.03,4.47-2.16,1-.61,1.76-1.29,2.32-1.87l-1.23-2.32c1.03.63,2.06,1.26,3.09,1.89.64.07,1.29.14,1.93.21.46-.08,1.89-.28,3.31.55.48.28,1.57.92,1.72,1.93.26,1.75-2.4,4.03-4.49,3.75-1.62-.21-1.96-1.84-3.43-1.96-1.56-.14-2.98,1.54-3.9,2.9l3.88,1.97,1.91-.95c.11.19.75,1.27,2.1,1.59,1.64.39,2.89-.67,3-.77l4.43-5.58c.37-.13,1.53-.6,2.25-1.84,1.14-1.97.08-4.07,0-4.22l-.82-1.23-4.22-2.79-1.7.95,4.97,4.15-.54,3.2c-.02-.66-.17-1.97-1.02-3.27-1.61-2.44-4.39-2.81-4.83-2.86l-.54-1.16,2.45-2.18-.27-2.72h1.5c-.07.3-.14.76-.09,1.31.03.41.12,1.42.57,1.69.58.34,1.87-.49,3.13-2.04l1.57,1.91c-.19,1.45-.2,2.71.31,2.93.42.18,1-.46,1.24-.28.18.14.13.69-.66,2.32l2.32,1.7,1.57-.14,3.2-3.68c.68-.18,3.33-.96,4.54-3.41.27-.55.42-1.08.5-1.56.59.29,2.11.93,4.11.7,2.01-.24,3.36-1.23,3.86-1.65l-.61-.2-4.63-.82c-.21-.32-.52-.71-.94-1.1-.66-.59-1.33-.91-1.78-1.08l.75-.07c.54.18,1.09.36,1.63.54.46.24,1.1.52,1.91.69.97.21,1.81.19,2.38.13.62.05,1.2-.21,1.5-.68.22-.36.22-.72.2-.89ZM381.13,44.08c-.37.33-1.03-.78-2.04-1.86-.56-.6-1.98-1.19-2.13-1.65-.05-.13-.16-.48,0-.67.23-.27.88-.07,1.09,0,1.71.54,3.63,3.7,3.09,4.18ZM399.94,54.92c-.06.17-.21.58-.62.92-.39.32-.79.41-.97.44-.06-.1-.45-.74-.21-1.55.24-.79.9-1.13,1-1.18.1.04.45.19.66.59.18.34.15.66.14.77ZM400.48,47.5c-.07.08-.21.04-.49,0-.5-.08-2.32-2.45-3.74-1.99-.88.29-.42,1.95-.77,1.99-.21.02-.38-.17-.53-.34-.23-.26-.37-1-.43-1.77-.07-.98,0-1.99.24-2.11.19-.09.37-.07.68,0,1.04.23,1.88.41,2.88,1.16,1.41,1.06,2.45,2.74,2.16,3.06Z"/>
    </g>
    <path class="cls-2" d="M4.07,22.92v67.08h13.96v-56.34c8.93-2.22,16.02,2.62,16.55,6.97.47,3.83-3.9,9.1-11.03,10.74v16.26l13.65,22.36h15.97l-19.75-28.17c8.92-1.89,15.5-9.56,15.97-18.58.48-9.24-5.55-17.72-14.52-20.33H4.07"/>
    <path class="cls-2" d="M74.18,47.17c-12.64-.18-23.71,11.47-22.36,25.27,2.69,11.93,12.76,20.02,23.23,19.75,11.45-.3,18.04-10.45,18.59-11.32l-9.88-4.94c-.6.66-3.31,4.5-8.91,4.34-1.12-.03-3.47.26-6.4-2.42-2.54-2.32-2.29-4.92-2.48-5.92l29.98-.36c.8-13.23-9.67-24.22-21.78-24.39ZM81.71,63.94h-15.72c-.25-4.51,3.4-8.35,7.86-8.35,4.46,0,8.11,3.84,7.86,8.35Z"/>
    <path class="cls-2" d="M134.35,20.65l-.13,35.75c-.46-.49-8.07-8.41-17.87-6.44-8.99,1.81-15.98,11.16-15.25,22.21,1.94,11.31,10.17,19.38,19.19,19.98,7.13.47,12.49-3.88,14.06-5.26v4.07h13.27V20.65h-13.27ZM125.38,82c-6.3,0-11.41-5.4-11.41-12.06s5.11-12.06,11.41-12.06,11.41,5.4,11.41,12.06-5.11,12.06-11.41,12.06Z"/>
    <path class="cls-2" d="M203.79,55.64c5.43-3.89,8.02-10.61,6.59-16.98-1.31-5.84-5.81-10.51-11.66-12.17,0,0-32.5-1.94-31.94-1.38v67.08h34.22c8.79-1.59,15.33-9.05,15.72-17.79.37-8.31-4.9-16.01-12.93-18.76ZM195.35,80.18h-15.46v-43.6h11.91c2.74,1.44,4.49,4.26,4.56,7.35.07,3.13-1.59,6.05-4.31,7.61l-6.84-.25-.08,11.9,11.24.27c3.04,1.7,4.91,4.93,4.82,8.37-.1,3.66-2.39,6.95-5.83,8.36Z"/>
    <path class="cls-2" d="M220.49,48.83h13.68v26.03c1.14,2.99,3.84,5.1,6.98,5.44,3.36.37,6.65-1.36,8.32-4.37v-27.1h13.15v28.93c-.27.67-5.25,12.18-17.44,14.15-9.24,1.49-18.7-3.12-23.61-11.62l-1.07-31.47Z"/>
    <polyline class="cls-2" points="269.33 21.37 282.21 21.37 282.21 92.19 269.33 92.19 269.33 21.37"/>
    <polyline class="cls-2" points="292.51 21.37 305.39 21.37 305.39 92.19 292.51 92.19 292.51 21.37"/>
    <polygon class="cls-2" points="464.82 52.25 452.15 21.88 438.72 21.88 438.72 92.19 453.69 92.19 453.69 55.62 464.82 80.37 475.96 55.62 475.96 92.19 490.93 92.19 490.93 21.88 477.49 21.88 464.82 52.25"/>
    <path class="cls-2" d="M577.21,44.62c-5.57.05-10.58,2.57-14.17,6.59l-.05-5.34-12.88.11.62,70.81,12.88-.11-.3-34.78c3.66,3.96,8.72,6.39,14.29,6.34,11.06-.1,19.94-9.94,19.84-21.98-.11-12.04-9.16-21.73-20.22-21.63ZM573.28,77.51c-4.66.04-8.64-3.08-10.08-7.45l-.06-7.03c1.37-4.39,5.29-7.59,9.95-7.63,5.84-.05,10.61,4.86,10.66,10.96.05,6.11-4.63,11.1-10.47,11.15Z"/>
    <path class="cls-2" d="M530.86,45.35l.2,9.6c-3.65-3.97-8.7-6.41-14.27-6.38-11.06.06-19.97,9.88-19.9,21.92.07,12.04,9.1,21.76,20.16,21.69,5.57-.03,10.59-2.54,14.19-6.55l.03,5.34,12.88-.08-.41-45.56h-12.88ZM521.2,81.41c-5.84.03-10.6-4.89-10.63-10.99-.04-6.11,4.67-11.08,10.5-11.12,4.66-.03,8.63,3.11,10.06,7.48l.04,7.03c-1.38,4.39-5.31,7.57-9.97,7.6Z"/>
  </g>
</svg>