<?xml version="1.0" encoding="UTF-8"?>
<svg id="Layer_1" data-name="Layer 1" xmlns="http://www.w3.org/2000/svg" xmlns:xlink="http://www.w3.org/1999/xlink" viewBox="0 0 600 300">
  <defs>
    <style>
      .cls-1 {
        fill: #f1d595;
      }

      .cls-2 {
        fill: #999;
      }

      .cls-2, .cls-3 {
        stroke-width: 6px;
      }

      .cls-2, .cls-3, .cls-4 {
        stroke: #ddd;
        stroke-miterlimit: 10;
      }

      .cls-5 {
        filter: url(#drop-shadow-1);
      }

      .cls-5, .cls-6 {
        fill: #c7c7c7;
      }

      .cls-7 {
        fill: #385696;
      }

      .cls-3, .cls-4 {
        fill: #d6d6d6;
      }

      .cls-8 {
        fill: #ddd;
      }

      .cls-9 {
        fill: #d2003c;
      }

      .cls-10 {
        fill: #385b9f;
      }

      .cls-4 {
        stroke-width: .75px;
      }
    </style>
    <filter id="drop-shadow-1" x="307.37" y="-350.24" width="331.83" height="353.24" filterUnits="userSpaceOnUse">
      <feOffset dx="141" dy="27"/>
      <feGaussianBlur result="blur" stdDeviation="7"/>
      <feFlood flood-color="#000" flood-opacity=".75"/>
      <feComposite in2="blur" operator="in"/>
      <feComposite in="SourceGraphic"/>
    </filter>
  </defs>
  <path class="cls-6" d="M417.53,194.74l35.52-18.42-2.52-.62-39.78,17.61-2.38-.51-2.45-.46-21.67,10.05-1.79-.32-5.77,2.68-5.51-.93-4.02,1.88-4.31-.71-4.54,2.12-.14.07-2.85-.45-10.08,4.73-.14.06-1.52-.22-17.51,8.22-.25.12-2.54-.33-88.91,41.8-6.98-.35-20.18,9.53-12.66-.43-29.89,14.23h-.8s-2.55-.02-2.55-.02c1.85,1.53,2.69,3.27,3.26,5.34.06,0,.12,0,.18,0,.13-.02.26-.03.39-.06,2.51-.45,4.46.76,5.47,2.47h104.44s14.11-6.16,14.11-6.16l-20.51-.24,27.48-12.19-13.51-.46,18.51-8.3-6.73-.34,83.99-37.85-2.97-.39,16.16-7.3-2.14-.32,10.18-4.61-1.92-.31,4.41-2-3.82-.63,3.61-1.64-6.47-1.09,5.87-2.68-1.7-.3,21.06-9.65-3.13-.62Z"/>
  <ellipse class="cls-2" cx="208.03" cy="286.59" rx="10.71" ry="43.65" transform="translate(-86.65 482.99) rotate(-87.71)"/>
  <path class="cls-8" d="M165.45,172.97l46.78,17.63-24.03,102.58c-2.7-.48-1.75-.36-5.15-1.17-2.3-.55-9.19-2.69-11.15-3.71-1.74-.91-3.35-1.43-4.77-2.47-.99-.72-2.57-2.29-3.77-2.92-.02-34.82,2.1-75.13,2.08-109.95Z"/>
  <path class="cls-7" d="M207.41,189.31c15.44-3.64,30.87-7.29,46.31-10.93l-.93,97.44c.08,4.06-.26,6.58-.17,10.64-.48,1.4-1.5,2.06-3.3,3.18-2.98,1.85-7.28,3.04-9.12,3.31-13.74,2.01-20.65,2.41-29.95,2.22-10.39-.22-19.39-1.28-26.83-2.98,8.05-34.1,15.94-68.78,23.99-102.88Z"/>
  <polygon class="cls-8" points="252.13 68.37 231.44 73.77 207.22 191.18 253.67 180.28 252.13 68.37"/>
  <path class="cls-10" d="M165.45,172.97c4.11,3.21,10.72,7.6,19.8,10.73,11.78,4.05,22.03,4.02,27.81,3.58l23.89-106.18.12-5.53.16-5.72c-7.76.58-14.34.78-19.35.83-7.33.08-11.76.1-17.9-.65-.35-.04-3.95-.67-11.16-1.92-7.81-1.35-10.57-1.85-14.22-3.17-3.14-1.13-5.56-2.38-7.08-3.22l-.44,23.68c-.25,13.61-.51,27.21-.76,40.82-.29,15.58-.58,31.17-.87,46.75Z"/>
  <ellipse class="cls-3" cx="210.92" cy="62.29" rx="10.71" ry="40.92" transform="translate(140.25 270.55) rotate(-87.71)"/>
  <ellipse cx="208.69" cy="66.55" rx="13.86" ry="5.84" transform="translate(-9.48 46.99) rotate(-12.56)"/>
  <path class="cls-8" d="M170.29,66.63c-.02-1.24-1.69-4.27-1.71-5.51,4.39,2.02,9.49,4.98,15.61,6.56,10.41,2.68,19.63,3.13,26.6,2.9,5.42.21,12.1,0,19.61-1.26,9.31-1.57,16.98-4.27,22.7-6.79-.2,1.54-.4,3.08-.6,4.61-4.69,1.9-11.4,4.18-19.7,5.6-8.04,1.37-13.94,1.32-21.53,1.24-10.87-.1-19.76-.26-30.72-3.52-5.15-1.53-7.43-2.47-10.25-3.83Z"/>
  <circle class="cls-1" cx="209.15" cy="180.35" r="19.39"/>
  <path class="cls-9" d="M169.88,173.63l.55,1.08,1.86.66,1.06.04-1.84,1.7-.04,1.06-.07,1.77-.06,1.53.92.63,1.48,1.48,1.65.07,1.18.05.5,2.38-.07,1.65-1.06-.04-2.19,1.57-1.57.76-.75,1.15.05,1.77,2.69-2.25-1.21,2.31,2.06.08.41-1.4,1.4.53,1.58-1.24s.71-.09,1.06.04,1.29.17,1.29.17l1.43-.41,1.11-1.25.05-1.3,2.51-.84,4.95.2-.52-1.67,1.82,1.73,1.16.52.89,1.33-3.41-.37-1.17-.28-1.56.65,1.48,1.48,1.4.41,1,1.46,2.15-.5,2.42-1.56,1.09-.66.07-1.65-.54-1.32-1.27-.64-.55-1.08,1.05-2.56.73,2.51,2.37-.26-.04,1.06-.08,2.12-.08,2,1.9-.28,1.56-.65,1.06.04,1.62-2.06,1.13,1.34,1.41.17,1.65.18-2.61-2.7,2.66,1.29-4.05-5-.92-3.58-1.82-1.84-2.85-2.59-3.01-1.54-2.3-1.63-1.65-.07-2.31,1.68-1.94,1.34-1.08.55-1.71,1.47-1.52-.41-1.49,1.83-.88,1.38-1.28-.41-1.42.18-1.83,1.46-1.48,1.48-1.06-.04-1.41-.06-.54-1.2-.18-1.42.87-1.03,1.34-1.01.22-2.47-.66-1.32-1.53-.06-1.41-.29"/>
  <path class="cls-9" d="M252.15,171.37l-.48,1.12-1.82.77-1.06.11,1.94,1.59.11,1.06.18,1.76.15,1.53-.88.68-1.39,1.56-1.64.16-1.17.12-.35,2.41.16,1.64,1.06-.11,2.28,1.43,1.61.67.82,1.1.06,1.77-2.82-2.09,1.35,2.24-2.05.21-.49-1.37-1.36.61-1.66-1.14s-.72-.05-1.06.11-1.28.25-1.28.25l-1.46-.33-1.19-1.19-.13-1.29-2.56-.69-4.93.49.42-1.7-1.71,1.83-1.13.59-.81,1.39,3.38-.57,1.15-.35,1.6.55-1.39,1.56-1.37.49-.92,1.51-2.17-.38-2.51-1.41-1.13-.6-.16-1.64.46-1.35,1.23-.72.48-1.12-1.2-2.49-.58,2.55-2.38-.12.11,1.06.21,2.11.2,2-1.91-.16-1.6-.55-1.06.11-1.74-1.96-1.04,1.41-1.4.26-1.63.28,2.44-2.85-2.58,1.44,3.75-5.23.7-3.63,1.7-1.95,2.69-2.76,2.91-1.71,2.2-1.76,1.64-.16,2.41,1.54,2.02,1.22,1.12.48,1.8,1.36,1.49-.5,1.6,1.74.96,1.33,1.26-.48,1.43.09,1.91,1.35,1.56,1.39,1.06-.11,1.41-.14.47-1.23.09-1.43-.93-.97-1.4-.93-.36-2.45.58-1.36,1.53-.15,1.39-.38"/>
  <path class="cls-4" d="M229.84,29.63l-17.73-1.33-3.48,3.01-1.76,14.42-2.13,16.54,4.18,3.84,10.02.26,5.78-2.95,2.54-14.68,4.78-15.81-2.19-3.31ZM219.12,59.72l-10.33-.85.87-6.24,1.75-3.93,10.24,1.25-2.52,9.76ZM223.07,40.26l-1.31.82-.62-.39v-1.2s-.49-.37-.49-.37l-.62.11-.3.59.2.92-.17.89-.22.42-.3.36-1.03-.19-.79-.47.12-.63.65-.02.52-.04v-.53s-.43-.61-.43-.61l-1.08-.16-.36.42-.59.93-1.63,1.55-1.15.2-.58-.11.23-1.21,1.32-.4.32-.96-2.21-.04-.34-1.17.19-1.03.47-.51.5-.18.34-1.32.7.69.22.83-.57.59-.36.44.92.03.89-.8.51-.51.78-.69,1.13-.85,1.47-.7,1.27.64,1.29.77,2.18,3.99-1.06-.08Z"/>
  <rect class="cls-5" x="307.37" y="-350.24" width="169.67" height="305.17"/>
</svg>