<?xml version="1.0" encoding="UTF-8"?>
<svg id="Layer_1" data-name="Layer 1" xmlns="http://www.w3.org/2000/svg" viewBox="0 0 600 300">
  <defs>
    <style>
      .cls-1 {
        fill: #f1d595;
      }

      .cls-2 {
        fill: #999;
      }

      .cls-2, .cls-3, .cls-4 {
        stroke: #ddd;
      }

      .cls-2, .cls-3, .cls-4, .cls-5 {
        stroke-miterlimit: 10;
      }

      .cls-2, .cls-4 {
        stroke-width: 6px;
      }

      .cls-3, .cls-4 {
        fill: #d6d6d6;
      }

      .cls-6 {
        fill: #385696;
      }

      .cls-5 {
        fill: #fff;
        stroke: #fff;
        stroke-width: .25px;
      }

      .cls-7 {
        fill: #c7c7c7;
      }

      .cls-8 {
        fill: #ddd;
      }

      .cls-9 {
        fill: #d2003c;
      }

      .cls-10 {
        fill: #113f89;
      }

      .cls-11 {
        fill: #385b9f;
      }
    </style>
  </defs>
  <polygon class="cls-10" points="285.14 147.48 -30.95 146.31 -30.95 -2.36 430.87 -3.33 285.14 147.48"/>
  <polygon class="cls-10" points="285.07 147.65 632.78 150.77 633.61 303.3 147.15 304.29 285.07 147.65"/>
  <polygon class="cls-7" points="147.15 304.29 -33.69 302.01 -30.95 146.31 285.14 147.48 147.15 304.29"/>
  <polygon class="cls-7" points="430.07 -2.92 633.04 -1.38 633.04 153.61 284.34 147.89 430.07 -2.92"/>
  <path class="cls-7" d="M453,178.01l35.52-18.42-2.52-.62-39.78,17.61-2.38-.51-2.45-.46-21.67,10.05-1.79-.32-5.77,2.68-5.51-.93-4.02,1.88-4.31-.71-4.54,2.12-.14.07-2.85-.45-10.08,4.73-.14.06-1.52-.22-17.51,8.22-.25.12-2.54-.33-88.91,41.8-6.98-.35-20.18,9.53-12.66-.43-29.89,14.23h-.8s-10.61-.12-10.61-.12c1.52,2.72,2.7,5.64,3.53,7.85h118.28s14.11-6.16,14.11-6.16l-20.51-.24,27.48-12.19-13.51-.46,18.51-8.3-6.73-.34,83.99-37.85-2.97-.39,16.16-7.3-2.14-.32,10.18-4.61-1.92-.31,4.41-2-3.82-.63,3.61-1.64-6.47-1.09,5.87-2.68-1.7-.3,21.06-9.65-3.13-.62Z"/>
  <g>
    <ellipse class="cls-2" cx="229.5" cy="269.85" rx="10.71" ry="43.65" transform="translate(-49.31 488.38) rotate(-87.71)"/>
    <path class="cls-8" d="M186.92,156.24l46.78,17.63-24.03,102.58c-2.7-.48-1.75-.36-5.15-1.17-2.3-.55-9.19-2.69-11.15-3.71-1.74-.91-3.35-1.43-4.77-2.47-.99-.72-2.57-2.29-3.77-2.92-.02-34.82,2.1-75.13,2.08-109.95Z"/>
    <path class="cls-6" d="M228.88,172.58c15.44-3.64,30.87-7.29,46.31-10.93l-.93,97.44c.08,4.06-.26,6.58-.17,10.64-.48,1.4-1.5,2.06-3.3,3.18-2.98,1.85-7.28,3.04-9.12,3.31-13.74,2.01-20.65,2.41-29.95,2.22-10.39-.22-19.39-1.28-26.83-2.98,8.05-34.1,15.94-68.78,23.99-102.88Z"/>
    <polygon class="cls-8" points="273.6 51.64 252.91 57.03 228.69 174.45 275.15 163.55 273.6 51.64"/>
    <path class="cls-11" d="M186.92,156.24c4.11,3.21,10.72,7.6,19.8,10.73,11.78,4.05,22.03,4.02,27.81,3.58l23.89-106.18.12-5.53.16-5.72c-7.76.58-14.34.78-19.35.83-7.33.08-11.76.1-17.9-.65-.35-.04-3.95-.67-11.16-1.92-7.81-1.35-10.57-1.85-14.22-3.17-3.14-1.13-5.56-2.38-7.08-3.22l-.44,23.68c-.25,13.61-.51,27.21-.76,40.82-.29,15.58-.58,31.17-.87,46.75Z"/>
    <ellipse class="cls-4" cx="232.39" cy="45.56" rx="10.71" ry="40.92" transform="translate(177.58 275.94) rotate(-87.71)"/>
    <ellipse cx="230.16" cy="49.82" rx="13.86" ry="5.84" transform="translate(-5.33 51.26) rotate(-12.56)"/>
    <path class="cls-3" d="M226.21,45.55l4.18,3.84,10.02.26,5.78-2.95,2.54-14.68,4.78-15.81-2.19-3.31-17.73-1.33-3.48,3.01-1.76,14.42-2.13,16.54ZM230.26,42.13l.87-6.24,1.75-3.93,10.24,1.25-2.52,9.76-10.33-.85Z"/>
    <path class="cls-8" d="M191.76,49.9c-.02-1.24-1.69-4.27-1.71-5.51,4.39,2.02,9.49,4.98,15.61,6.56,10.41,2.68,19.63,3.13,26.6,2.9,5.42.21,12.1,0,19.61-1.26,9.31-1.57,16.98-4.27,22.7-6.79-.2,1.54-.4,3.08-.6,4.61-4.69,1.9-11.4,4.18-19.7,5.6-8.04,1.37-13.94,1.32-21.53,1.24-10.87-.1-19.76-.26-30.72-3.52-5.15-1.53-7.43-2.47-10.25-3.83Z"/>
    <circle class="cls-1" cx="230.62" cy="163.62" r="19.39"/>
    <path class="cls-9" d="M191.35,156.89l.55,1.08,1.86.66,1.06.04-1.84,1.7-.04,1.06-.07,1.77-.06,1.53.92.63,1.48,1.48,1.65.07,1.18.05.5,2.38-.07,1.65-1.06-.04-2.19,1.57-1.57.76-.75,1.15.05,1.77,2.69-2.25-1.21,2.31,2.06.08.41-1.4,1.4.53,1.58-1.24s.71-.09,1.06.04,1.29.17,1.29.17l1.43-.41,1.11-1.25.05-1.3,2.51-.84,4.95.2-.52-1.67,1.82,1.73,1.16.52.89,1.33-3.41-.37-1.17-.28-1.56.65,1.48,1.48,1.4.41,1,1.46,2.15-.5,2.42-1.56,1.09-.66.07-1.65-.54-1.32-1.27-.64-.55-1.08,1.05-2.56.73,2.51,2.37-.26-.04,1.06-.08,2.12-.08,2,1.9-.28,1.56-.65,1.06.04,1.62-2.06,1.13,1.34,1.41.17,1.65.18-2.61-2.7,2.66,1.29-4.05-5-.92-3.58-1.82-1.84-2.85-2.59-3.01-1.54-2.3-1.63-1.65-.07-2.31,1.68-1.94,1.34-1.08.55-1.71,1.47-1.52-.41-1.49,1.83-.88,1.38-1.28-.41-1.42.18-1.83,1.46-1.48,1.48-1.06-.04-1.41-.06-.54-1.2-.18-1.42.87-1.03,1.34-1.01.22-2.47-.66-1.32-1.53-.06-1.41-.29"/>
    <path class="cls-9" d="M273.62,154.64l-.48,1.12-1.82.77-1.06.11,1.94,1.59.11,1.06.18,1.76.15,1.53-.88.68-1.39,1.56-1.64.16-1.17.12-.35,2.41.16,1.64,1.06-.11,2.28,1.43,1.61.67.82,1.1.06,1.77-2.82-2.09,1.35,2.24-2.05.21-.49-1.37-1.36.61-1.66-1.14s-.72-.05-1.06.11-1.28.25-1.28.25l-1.46-.33-1.19-1.19-.13-1.29-2.56-.69-4.93.49.42-1.7-1.71,1.83-1.13.59-.81,1.39,3.38-.57,1.15-.35,1.6.55-1.39,1.56-1.37.49-.92,1.51-2.17-.38-2.51-1.41-1.13-.6-.16-1.64.46-1.35,1.23-.72.48-1.12-1.2-2.49-.58,2.55-2.38-.12.11,1.06.21,2.11.2,2-1.91-.16-1.6-.55-1.06.11-1.74-1.96-1.04,1.41-1.4.26-1.63.28,2.44-2.85-2.58,1.44,3.75-5.23.7-3.63,1.7-1.95,2.69-2.76,2.91-1.71,2.2-1.76,1.64-.16,2.41,1.54,2.02,1.22,1.12.48,1.8,1.36,1.49-.5,1.6,1.74.96,1.33,1.26-.48,1.43.09,1.91,1.35,1.56,1.39,1.06-.11,1.41-.14.47-1.23.09-1.43-.93-.97-1.4-.93-.36-2.45.58-1.36,1.53-.15,1.39-.38"/>
    <polygon class="cls-5" points="244.54 23.53 243.23 24.35 242.61 23.95 242.61 22.75 242.12 22.38 241.5 22.5 241.2 23.09 241.4 24 241.23 24.9 241.02 25.32 240.72 25.68 239.69 25.49 238.9 25.02 239.01 24.39 239.67 24.37 240.18 24.33 240.19 23.8 239.75 23.19 238.67 23.03 238.31 23.45 237.72 24.38 236.09 25.93 234.94 26.13 234.36 26.02 234.59 24.81 235.91 24.41 236.23 23.45 234.02 23.41 233.68 22.24 233.87 21.21 234.34 20.69 234.84 20.51 235.18 19.19 235.88 19.87 236.1 20.7 235.53 21.29 235.17 21.73 236.08 21.76 236.97 20.96 237.49 20.45 238.26 19.76 239.39 18.91 240.86 18.21 242.13 18.85 243.42 19.62 245.6 23.61 244.54 23.53"/>
  </g>
</svg>