<?xml version="1.0" encoding="UTF-8"?>
<svg id="Layer_1" data-name="Layer 1" xmlns="http://www.w3.org/2000/svg" viewBox="0 0 600 300">
  <defs>
    <style>
      .cls-1 {
        fill: #f1d595;
      }

      .cls-2 {
        fill: #385696;
      }

      .cls-3 {
        stroke-width: 8px;
      }

      .cls-3, .cls-4 {
        fill: #d6d6d6;
        stroke: #ddd;
        stroke-miterlimit: 10;
      }

      .cls-4 {
        stroke-width: 5px;
      }

      .cls-5 {
        fill: #c7c7c7;
      }

      .cls-6 {
        fill: #ddd;
      }

      .cls-7 {
        fill: #d2003c;
      }

      .cls-8 {
        fill: #113f89;
      }

      .cls-9 {
        fill: #385b9f;
      }

      .cls-10 {
        fill: #bababa;
      }
    </style>
  </defs>
  <polygon class="cls-8" points="285.14 147.48 -30.95 146.31 -30.95 -2.36 430.87 -3.33 285.14 147.48"/>
  <polygon class="cls-8" points="285.07 147.65 632.78 150.77 633.61 303.3 147.15 304.29 285.07 147.65"/>
  <polygon class="cls-5" points="147.15 304.29 -33.69 302.01 -30.95 146.31 285.14 147.48 147.15 304.29"/>
  <polygon class="cls-5" points="430.07 -2.92 633.04 -1.38 633.04 153.61 284.34 147.89 430.07 -2.92"/>
  <g>
    <ellipse class="cls-6" cx="315.49" cy="259.88" rx="44.68" ry="16.31" transform="translate(-51.28 79.45) rotate(-13.28)"/>
    <ellipse class="cls-10" cx="259.53" cy="28.59" rx="7.77" ry="6.92"/>
    <path class="cls-6" d="M252.39,168.77l44.65,3.52-1.22,102.51c-4.75-1.37-9.18-1.21-13.93-2.59-2.89-.84-6.1-3.2-8.99-4.04-6.84-33.14-13.67-66.28-20.51-99.42Z"/>
    <path class="cls-2" d="M297.04,172.3c13.26-6.74,26.52-13.49,39.78-20.23l18.84,92.95c.22,1.8.44,3.59.66,5.39-.34.55-2.3,3.91-2.93,4.8,0,0-4.22,4.84-8.62,7.18-1.06.57-6.96,4.48-12.13,6.24-6.51,2.22-15.84,6.86-36.84,6.19.41-34.17.81-68.34,1.22-102.51Z"/>
    <polygon class="cls-6" points="312.88 45.87 295.27 55.39 297.04 172.3 336.82 152.06 312.88 45.87"/>
    <path class="cls-9" d="M252.39,168.77c4.24,2.18,10.91,4.96,19.5,6.01,11.15,1.36,20.15-.85,25.14-2.49l.2-106.14-.98-5.29-.98-5.48c-6.7,2.2-12.45,3.78-16.84,4.9-6.43,1.63-10.32,2.6-15.86,3.18-.31.03-3.6.2-10.18.54-7.13.37-9.65.48-13.12,0-2.98-.41-5.35-1.08-6.85-1.57l4.25,22.63c2.44,13,4.89,26.01,7.33,39.01,2.8,14.89,5.6,29.79,8.39,44.68Z"/>
    <ellipse class="cls-3" cx="272.1" cy="50.1" rx="39.91" ry="10.44" transform="translate(-4.57 49.33) rotate(-10.27)"/>
    <ellipse cx="272.15" cy="54" rx="13.51" ry="5.69"/>
    <path class="cls-4" d="M271.81,32.39l-4.74-13.36-3.95-2.12-16.6,5.02-1.39,3.62,7.9,14.03,5.53,13.43,6.13,1.58,9.48-2.37,3.16-4.54-5.53-15.29ZM263.1,48.3l-4.47-8.76,9.48-3.36,2.5,3.36,2.15,5.75-9.66,3.01Z"/>
    <path class="cls-6" d="M232.41,62.44c-.28-1.18-.59-3.29-.87-4.47,4.6.99,10.09,2.73,16.25,2.93,10.48.34,19.35-1.18,25.93-2.88,5.2-.95,11.52-2.57,18.4-5.36,8.53-3.47,15.25-7.67,20.17-11.28.13,1.51.27,3.01.4,4.52-4.06,2.8-9.96,6.4-17.57,9.51-7.36,3.01-12.99,4.21-20.23,5.75-10.37,2.21-18.87,3.95-29.98,3.17-5.23-.37-9.53-1.19-12.5-1.88Z"/>
    <circle class="cls-1" cx="295.46" cy="162.86" r="18.91"/>
    <path class="cls-7" d="M256.66,164.79l.75.92,1.91.24,1.02-.18-1.39,2.01.18,1.02.31,1.7.27,1.47,1.01.4,1.72,1.09,1.58-.29,1.13-.21.98,2.16.29,1.58-1.02.18-1.75,1.95-1.33,1.06-.47,1.26.42,1.68,2.08-2.72-.67,2.46,1.98-.36.09-1.42,1.44.21,1.25-1.51s.66-.24,1.02-.18,1.27-.11,1.27-.11l1.28-.7.79-1.43-.23-1.25,2.21-1.34,4.75-.86-.85-1.48,2.1,1.26,1.21.25,1.13,1.08-3.32.37-1.17-.02-1.35.95,1.72,1.09,1.42.09,1.27,1.17,1.94-.94,1.98-2,.9-.86-.29-1.58-.79-1.14-1.35-.34-.75-.92.45-2.65,1.22,2.23,2.2-.75.18,1.02.37,2.04.35,1.92,1.75-.67,1.35-.95,1.02-.18,1.1-2.3,1.36,1.04,1.38-.13,1.61-.17-3.06-2.02,2.81.66-4.92-3.9-1.63-3.21-2.12-1.37-3.26-1.86-3.19-.83-2.53-1.06-1.58.29-1.84,2.09-1.57,1.69-.92.75-1.32,1.76-1.53-.07-1.03,2.06-.55,1.5-1.31-.11-1.32.47-1.43,1.78-1.09,1.72-1.02.18-1.36.25-.77-1.03-.47-1.32.61-1.16,1.06-1.24-.32-2.4-.9-1.12-1.47.27-1.4.02"/>
    <path class="cls-7" d="M334.49,145.19l-.22,1.16-1.57,1.12-.98.32,2.18,1.1.32.98.54,1.64.47,1.42-.69.83-.99,1.78-1.53.5-1.09.36.17,2.37.5,1.53.98-.32,2.47.88,1.67.3,1.02.88.43,1.67-3.12-1.39,1.76,1.84-1.91.63-.76-1.2-1.17.87-1.82-.73s-.69.11-.98.32-1.17.51-1.17.51h-1.46s-1.38-.88-1.38-.88l-.4-1.2-2.58-.12-4.59,1.51.04-1.71-1.24,2.11-.95.8-.48,1.49,3.1-1.26,1.02-.58,1.64.19-.99,1.78-1.2.76-.55,1.64-2.15.1-2.69-.81-1.2-.33-.5-1.53.15-1.38,1.02-.94.22-1.16-1.67-2.12v2.55s-2.3.39-2.3.39l.32.98.65,1.97.61,1.86-1.86.25-1.64-.19-.98.32-2.07-1.5-.7,1.56-1.28.54-1.49.61,1.72-3.23-2.15,1.92,2.45-5.78-.1-3.6,1.21-2.22,1.97-3.2,2.41-2.25,1.72-2.14,1.53-.5,2.62.95,2.18.73,1.16.22,2,.92,1.31-.8,1.89,1.32,1.2,1.06,1.09-.72,1.38-.21,2.11.88,1.78.99.98-.32,1.31-.43.19-1.27-.21-1.38-1.09-.73-1.53-.59-.87-2.26.26-1.42,1.42-.47,1.24-.65"/>
    <polygon class="cls-8" points="264.66 28.78 263.56 29.8 262.89 29.54 262.67 28.38 262.14 28.12 261.56 28.34 261.38 28.96 261.74 29.8 261.74 30.69 261.6 31.13 261.38 31.53 260.36 31.53 259.52 31.22 259.52 30.6 260.14 30.47 260.63 30.33 260.54 29.82 260.01 29.31 258.94 29.36 258.68 29.82 258.28 30.82 256.99 32.59 255.93 32.99 255.35 32.99 255.35 31.8 256.55 31.18 256.68 30.2 254.55 30.55 254.02 29.49 254.02 28.47 254.38 27.89 254.82 27.63 254.91 26.3 255.71 26.83 256.06 27.58 255.62 28.25 255.35 28.74 256.24 28.6 256.95 27.67 257.35 27.1 257.97 26.3 258.9 25.28 260.19 24.35 261.52 24.73 262.89 25.23 265.7 28.67 264.66 28.78"/>
  </g>
</svg>